<mxfile host="app.diagrams.net" modified="2021-12-14T03:52:11.824Z" agent="5.0 (Windows NT 10.0; Win64; x64) AppleWebKit/537.36 (KHTML, like Gecko) Chrome/96.0.4664.93 Safari/537.36" etag="-rba0dSkM8sBzNIxgwk4" version="15.7.0" type="github">
  <diagram id="6a731a19-8d31-9384-78a2-239565b7b9f0" name="Page-1">
    <mxGraphModel dx="1422" dy="762" grid="1" gridSize="10" guides="1" tooltips="1" connect="1" arrows="1" fold="1" page="1" pageScale="1" pageWidth="1169" pageHeight="827" background="none" math="0" shadow="0">
      <root>
        <mxCell id="0" />
        <mxCell id="1" parent="0" />
        <mxCell id="SC8nzpOb8EhyjS574FwL-61" style="edgeStyle=orthogonalEdgeStyle;rounded=0;orthogonalLoop=1;jettySize=auto;html=1;exitX=1;exitY=0.5;exitDx=0;exitDy=0;exitPerimeter=0;entryX=0.5;entryY=0;entryDx=0;entryDy=0;" edge="1" parent="1" source="2" target="SC8nzpOb8EhyjS574FwL-56">
          <mxGeometry relative="1" as="geometry" />
        </mxCell>
        <mxCell id="2" value="开始" style="shape=mxgraph.flowchart.terminator;strokeWidth=2;gradientColor=none;gradientDirection=north;fontStyle=0;html=1;" parent="1" vertex="1">
          <mxGeometry x="260" y="60" width="120" height="30" as="geometry" />
        </mxCell>
        <mxCell id="SC8nzpOb8EhyjS574FwL-59" value="是" style="edgeStyle=orthogonalEdgeStyle;rounded=0;orthogonalLoop=1;jettySize=auto;html=1;exitX=0.5;exitY=1;exitDx=0;exitDy=0;exitPerimeter=0;entryX=0;entryY=0.5;entryDx=0;entryDy=0;" edge="1" parent="1" source="SC8nzpOb8EhyjS574FwL-55" target="SC8nzpOb8EhyjS574FwL-57">
          <mxGeometry relative="1" as="geometry" />
        </mxCell>
        <mxCell id="SC8nzpOb8EhyjS574FwL-63" style="edgeStyle=orthogonalEdgeStyle;rounded=0;orthogonalLoop=1;jettySize=auto;html=1;exitX=1;exitY=0.5;exitDx=0;exitDy=0;exitPerimeter=0;entryX=0;entryY=0.5;entryDx=0;entryDy=0;" edge="1" parent="1" source="SC8nzpOb8EhyjS574FwL-55" target="SC8nzpOb8EhyjS574FwL-64">
          <mxGeometry relative="1" as="geometry">
            <mxPoint x="920" y="140" as="targetPoint" />
          </mxGeometry>
        </mxCell>
        <mxCell id="SC8nzpOb8EhyjS574FwL-73" value="什么时候？" style="edgeStyle=orthogonalEdgeStyle;rounded=0;orthogonalLoop=1;jettySize=auto;html=1;exitX=0;exitY=0.5;exitDx=0;exitDy=0;exitPerimeter=0;entryX=0.5;entryY=0;entryDx=0;entryDy=0;" edge="1" parent="1" source="SC8nzpOb8EhyjS574FwL-55" target="SC8nzpOb8EhyjS574FwL-69">
          <mxGeometry x="0.244" y="4" relative="1" as="geometry">
            <mxPoint y="1" as="offset" />
          </mxGeometry>
        </mxCell>
        <mxCell id="SC8nzpOb8EhyjS574FwL-55" value="是否已签到&lt;br&gt;/inspectionStore/checkSign/v1" style="shape=mxgraph.flowchart.decision;strokeWidth=2;gradientColor=none;gradientDirection=north;fontStyle=0;html=1;" vertex="1" parent="1">
          <mxGeometry x="510" y="120" width="98" height="57" as="geometry" />
        </mxCell>
        <mxCell id="SC8nzpOb8EhyjS574FwL-62" style="edgeStyle=orthogonalEdgeStyle;rounded=0;orthogonalLoop=1;jettySize=auto;html=1;exitX=0;exitY=0.5;exitDx=0;exitDy=0;entryX=0.5;entryY=0;entryDx=0;entryDy=0;entryPerimeter=0;" edge="1" parent="1" source="SC8nzpOb8EhyjS574FwL-56" target="SC8nzpOb8EhyjS574FwL-55">
          <mxGeometry relative="1" as="geometry" />
        </mxCell>
        <mxCell id="SC8nzpOb8EhyjS574FwL-56" value="签到页" style="rounded=0;whiteSpace=wrap;html=1;" vertex="1" parent="1">
          <mxGeometry x="690" y="60" width="120" height="60" as="geometry" />
        </mxCell>
        <mxCell id="SC8nzpOb8EhyjS574FwL-66" value="点击返回确定是否保存" style="edgeStyle=orthogonalEdgeStyle;rounded=0;orthogonalLoop=1;jettySize=auto;html=1;exitX=0.5;exitY=1;exitDx=0;exitDy=0;entryX=0.5;entryY=0;entryDx=0;entryDy=0;" edge="1" parent="1" source="SC8nzpOb8EhyjS574FwL-57" target="SC8nzpOb8EhyjS574FwL-68">
          <mxGeometry relative="1" as="geometry">
            <mxPoint x="890" y="390" as="targetPoint" />
          </mxGeometry>
        </mxCell>
        <mxCell id="SC8nzpOb8EhyjS574FwL-70" style="edgeStyle=orthogonalEdgeStyle;rounded=0;orthogonalLoop=1;jettySize=auto;html=1;exitX=1;exitY=0.5;exitDx=0;exitDy=0;entryX=0;entryY=0.5;entryDx=0;entryDy=0;" edge="1" parent="1" source="SC8nzpOb8EhyjS574FwL-57" target="SC8nzpOb8EhyjS574FwL-69">
          <mxGeometry relative="1" as="geometry" />
        </mxCell>
        <mxCell id="SC8nzpOb8EhyjS574FwL-57" value="评价页" style="rounded=0;whiteSpace=wrap;html=1;" vertex="1" parent="1">
          <mxGeometry x="840" y="250" width="120" height="60" as="geometry" />
        </mxCell>
        <mxCell id="SC8nzpOb8EhyjS574FwL-65" value="签到" style="edgeStyle=orthogonalEdgeStyle;rounded=0;orthogonalLoop=1;jettySize=auto;html=1;exitX=0.5;exitY=1;exitDx=0;exitDy=0;entryX=0.5;entryY=0;entryDx=0;entryDy=0;" edge="1" parent="1" source="SC8nzpOb8EhyjS574FwL-64" target="SC8nzpOb8EhyjS574FwL-57">
          <mxGeometry relative="1" as="geometry" />
        </mxCell>
        <mxCell id="SC8nzpOb8EhyjS574FwL-64" value="选择模板、门店、lication" style="rounded=0;whiteSpace=wrap;html=1;" vertex="1" parent="1">
          <mxGeometry x="650" y="170" width="120" height="60" as="geometry" />
        </mxCell>
        <mxCell id="SC8nzpOb8EhyjS574FwL-68" value="closeWebview" style="rounded=0;whiteSpace=wrap;html=1;" vertex="1" parent="1">
          <mxGeometry x="830" y="400" width="120" height="60" as="geometry" />
        </mxCell>
        <mxCell id="SC8nzpOb8EhyjS574FwL-71" style="edgeStyle=orthogonalEdgeStyle;rounded=0;orthogonalLoop=1;jettySize=auto;html=1;exitX=0.5;exitY=1;exitDx=0;exitDy=0;entryX=1;entryY=0.5;entryDx=0;entryDy=0;" edge="1" parent="1" source="SC8nzpOb8EhyjS574FwL-69" target="SC8nzpOb8EhyjS574FwL-68">
          <mxGeometry relative="1" as="geometry" />
        </mxCell>
        <mxCell id="SC8nzpOb8EhyjS574FwL-72" value="返回" style="edgeLabel;html=1;align=center;verticalAlign=middle;resizable=0;points=[];" vertex="1" connectable="0" parent="SC8nzpOb8EhyjS574FwL-71">
          <mxGeometry x="-0.437" relative="1" as="geometry">
            <mxPoint as="offset" />
          </mxGeometry>
        </mxCell>
        <mxCell id="SC8nzpOb8EhyjS574FwL-74" style="edgeStyle=orthogonalEdgeStyle;rounded=0;orthogonalLoop=1;jettySize=auto;html=1;exitX=1;exitY=0.5;exitDx=0;exitDy=0;entryX=0.5;entryY=0;entryDx=0;entryDy=0;" edge="1" parent="1" source="SC8nzpOb8EhyjS574FwL-69" target="SC8nzpOb8EhyjS574FwL-68">
          <mxGeometry relative="1" as="geometry">
            <mxPoint x="1220" y="280" as="targetPoint" />
          </mxGeometry>
        </mxCell>
        <mxCell id="SC8nzpOb8EhyjS574FwL-75" value="签退、跳过签退" style="edgeLabel;html=1;align=center;verticalAlign=middle;resizable=0;points=[];" vertex="1" connectable="0" parent="SC8nzpOb8EhyjS574FwL-74">
          <mxGeometry x="-0.6372" y="-1" relative="1" as="geometry">
            <mxPoint as="offset" />
          </mxGeometry>
        </mxCell>
        <mxCell id="SC8nzpOb8EhyjS574FwL-69" value="签退页" style="rounded=0;whiteSpace=wrap;html=1;" vertex="1" parent="1">
          <mxGeometry x="1040" y="250" width="120" height="60" as="geometry" />
        </mxCell>
      </root>
    </mxGraphModel>
  </diagram>
</mxfile>
